<?xml version="1.0" encoding="utf-8"?>
<!-- Generator: Adobe Illustrator 21.1.0, SVG Export Plug-In . SVG Version: 6.00 Build 0)  -->
<svg version="1.1" id="Layer_1" xmlns="http://www.w3.org/2000/svg" xmlns:xlink="http://www.w3.org/1999/xlink" x="0px" y="0px"
	 viewBox="0 0 24 24" style="enable-background:new 0 0 24 24;" xml:space="preserve">
<g>
	<path d="M11.4,8v2.7H3V8.6l3.8-3.5C7.5,4.4,7.6,4,7.6,3.7c0-0.5-0.3-0.8-1-0.8c-0.6,0-1.2,0.3-1.5,1L2.4,2.5
		c0.8-1.4,2.3-2.4,4.5-2.4c2.5,0,4.2,1.3,4.2,3.3c0,1-0.3,2-1.8,3.3L7.9,8H11.4z"/>
	<path d="M12.1,5.5c0-3.5,2-5.5,4.7-5.5c2.8,0,4.7,2,4.7,5.5s-2,5.5-4.7,5.5C14.1,11,12.1,9,12.1,5.5z M18.1,5.5
		c0-2-0.5-2.6-1.2-2.6c-0.7,0-1.2,0.6-1.2,2.6c0,2,0.5,2.6,1.2,2.6C17.5,8.2,18.1,7.6,18.1,5.5z"/>
	<path d="M11.4,21.2v2.7H3v-2.2l3.8-3.5c0.7-0.7,0.8-1.1,0.8-1.4c0-0.5-0.3-0.8-1-0.8c-0.6,0-1.2,0.3-1.5,1l-2.7-1.3
		c0.8-1.4,2.3-2.4,4.5-2.4c2.5,0,4.2,1.3,4.2,3.3c0,1-0.3,2-1.8,3.3l-1.5,1.4H11.4z"/>
	<path d="M20.5,21.2v2.7h-8.4v-2.2l3.8-3.5c0.7-0.7,0.8-1.1,0.8-1.4c0-0.5-0.3-0.8-1-0.8c-0.6,0-1.2,0.3-1.5,1l-2.7-1.3
		c0.8-1.4,2.3-2.4,4.5-2.4c2.5,0,4.2,1.3,4.2,3.3c0,1-0.3,2-1.8,3.3L17,21.2H20.5z"/>
</g>
</svg>
